<svg width="21" height="21" viewBox="0 0 21 21" fill="none" xmlns="http://www.w3.org/2000/svg">
<path d="M3.06246 17.5C2.71246 17.5 2.40621 17.3687 2.14371 17.1062C1.88121 16.8437 1.74996 16.5375 1.74996 16.1875V4.81242C1.74996 4.46242 1.88121 4.15617 2.14371 3.89367C2.40621 3.63117 2.71246 3.49992 3.06246 3.49992H17.9375C18.2875 3.49992 18.5938 3.63117 18.8563 3.89367C19.1188 4.15617 19.25 4.46242 19.25 4.81242V16.1875C19.25 16.5375 19.1188 16.8437 18.8563 17.1062C18.5938 17.3687 18.2875 17.5 17.9375 17.5H3.06246ZM17.9375 6.01555L10.85 10.6531C10.7916 10.6822 10.737 10.7078 10.6859 10.7296C10.6349 10.7515 10.5729 10.7624 10.5 10.7624C10.4271 10.7624 10.3651 10.7515 10.314 10.7296C10.263 10.7078 10.2083 10.6822 10.15 10.6531L3.06246 6.01555V16.1875H17.9375V6.01555ZM10.5 9.58118L17.85 4.81242H3.17184L10.5 9.58118ZM3.06246 6.16868V5.30861V5.32463V4.81242V5.31555V5.2956V6.16868Z" fill="black"/>
</svg>
