<svg width="21" height="21" viewBox="0 0 21 21" fill="none" xmlns="http://www.w3.org/2000/svg">
<path d="M4.81242 19.25C4.45148 19.25 4.1425 19.1215 3.88547 18.8645C3.62843 18.6074 3.49992 18.2985 3.49992 17.9375V8.44375C3.49992 8.08281 3.62843 7.77383 3.88547 7.51679C4.1425 7.25976 4.45148 7.13125 4.81242 7.13125H6.34368V5.03124C6.34368 3.88134 6.74914 2.90116 7.56006 2.09069C8.37098 1.28022 9.35172 0.87498 10.5023 0.87498C11.6528 0.87498 12.6328 1.28022 13.4421 2.09069C14.2515 2.90116 14.6562 3.88134 14.6562 5.03124V7.13125H16.1875C16.5484 7.13125 16.8574 7.25976 17.1144 7.51679C17.3714 7.77383 17.5 8.08281 17.5 8.44375V17.9375C17.5 18.2985 17.3714 18.6074 17.1144 18.8645C16.8574 19.1215 16.5484 19.25 16.1875 19.25H4.81242ZM4.81242 17.9375H16.1875V8.44375H4.81242V17.9375ZM10.5036 14.875C10.9678 14.875 11.364 14.7144 11.6921 14.3931C12.0203 14.0718 12.1843 13.6856 12.1843 13.2344C12.1843 12.7969 12.019 12.3995 11.6885 12.0422C11.3579 11.6849 10.9605 11.5063 10.4963 11.5063C10.032 11.5063 9.63587 11.6849 9.30775 12.0422C8.97962 12.3995 8.81556 12.8005 8.81556 13.2453C8.81556 13.6901 8.98085 14.0729 9.31142 14.3938C9.642 14.7146 10.0394 14.875 10.5036 14.875ZM7.65618 7.13125H13.3437V5.03124C13.3437 4.2413 13.0675 3.56986 12.515 3.01692C11.9626 2.46396 11.2917 2.18748 10.5025 2.18748C9.7133 2.18748 9.0416 2.46396 8.48743 3.01692C7.93326 3.56986 7.65618 4.2413 7.65618 5.03124V7.13125Z" fill="black"/>
</svg>
