<svg width="22" height="15" viewBox="0 0 22 15" fill="none" xmlns="http://www.w3.org/2000/svg">
<path opacity="0.3" d="M21.9368 7.03636C21.9048 6.96394 21.1283 5.24152 19.4022 3.51543C17.1023 1.2155 14.1974 0 11 0C7.80269 0 4.89776 1.2155 2.59784 3.51543C0.871745 5.24152 0.0916583 6.96669 0.0632415 7.03636C0.0215451 7.13014 0 7.23164 0 7.33428C0 7.43691 0.0215451 7.53841 0.0632415 7.63219C0.095325 7.70461 0.871745 9.42612 2.59784 11.1522C4.89776 13.4512 7.80269 14.6667 11 14.6667C14.1974 14.6667 17.1023 13.4512 19.4022 11.1522C21.1283 9.42612 21.9048 7.70461 21.9368 7.63219C21.9785 7.53841 22.0001 7.43691 22.0001 7.33428C22.0001 7.23164 21.9785 7.13014 21.9368 7.03636ZM11 11C10.2748 11 9.56592 10.785 8.96294 10.3821C8.35996 9.97919 7.88999 9.40654 7.61247 8.73654C7.33494 8.06654 7.26233 7.32929 7.40381 6.61803C7.54529 5.90676 7.89451 5.25342 8.4073 4.74063C8.9201 4.22783 9.57344 3.87861 10.2847 3.73713C10.996 3.59565 11.7332 3.66827 12.4032 3.94579C13.0732 4.22331 13.6459 4.69328 14.0488 5.29626C14.4517 5.89924 14.6667 6.60816 14.6667 7.33336C14.6667 8.30582 14.2804 9.23846 13.5928 9.92609C12.9051 10.6137 11.9725 11 11 11Z" fill="black"/>
</svg>
